Coordinates
version=1
nRows=49
nColumns=12
inDegrees=yes

Units are S.I. units (second, meters, Newtons, ...)
Angles are in degrees

endheader
time	SC_y	SC_z	SC_x	AC_y	AC_z	AC_x	GH_y	GH_z	GH_yy	EL_x	PS_y
       0.0               -28.5          25.79          82.64           60.7         -16.37          -2.86          109.0          -3.93         -6.431          55.28          151.3
  0.008907               -28.5          25.79          82.64           60.7         -16.36          -2.86          109.0          -3.93         -6.409          55.29          151.3
   0.01781               -28.5          25.79          82.64           60.7         -16.36         -2.861          109.0          -3.93         -6.386          55.29          151.3
   0.02672               -28.5          25.79          82.64          60.69         -16.35         -2.862          109.1         -3.931         -6.361           55.3          151.3
   0.03563               -28.5           25.8          82.64          60.69         -16.35         -2.862          109.1         -3.931         -6.335          55.31          151.3
   0.04454              -28.49           25.8          82.64          60.69         -16.35         -2.863          109.1         -3.931         -6.308          55.32          151.3
   0.05344              -28.49           25.8          82.64          60.68         -16.34         -2.864          109.1         -3.931         -6.278          55.33          151.3
   0.06235              -28.49           25.8          82.64          60.68         -16.34         -2.865          109.1         -3.932         -6.246          55.34          151.2
   0.07126              -28.49           25.8          82.64          60.67         -16.33         -2.866          109.1         -3.932         -6.212          55.35          151.2
   0.08017              -28.48          25.81          82.64          60.67         -16.32         -2.867          109.1         -3.932         -6.176          55.36          151.2
   0.08907              -28.48          25.81          82.64          60.66         -16.32         -2.868          109.1         -3.933         -6.136          55.37          151.2
   0.09798              -28.48          25.81          82.64          60.66         -16.31         -2.869          109.1         -3.933         -6.094          55.38          151.2
    0.1069              -28.48          25.81          82.64          60.65          -16.3         -2.871          109.1         -3.934         -6.049          55.39          151.2
    0.1158              -28.47          25.82          82.64          60.64         -16.29         -2.872          109.2         -3.934           -6.0          55.41          151.1
    0.1247              -28.47          25.82          82.63          60.64         -16.29         -2.873          109.2         -3.935         -5.947          55.43          151.1
    0.1336              -28.46          25.83          82.63          60.63         -16.28         -2.875          109.2         -3.935         -5.889          55.44          151.1
    0.1425              -28.46          25.83          82.63          60.62         -16.27         -2.877          109.2         -3.936         -5.826          55.46          151.1
    0.1514              -28.45          25.83          82.63          60.61         -16.26         -2.879          109.2         -3.937         -5.758          55.48          151.0
    0.1603              -28.45          25.84          82.63           60.6         -16.24         -2.881          109.3         -3.937         -5.684           55.5          151.0
    0.1692              -28.44          25.84          82.63          60.59         -16.23         -2.883          109.3         -3.938         -5.602          55.53          151.0
    0.1781              -28.44          25.85          82.63          60.57         -16.21         -2.886          109.3         -3.939         -5.513          55.56          150.9
    0.1871              -28.43          25.86          82.63          60.56          -16.2         -2.889          109.3          -3.94         -5.414          55.59          150.9
     0.196              -28.42          25.86          82.63          60.55         -16.18         -2.892          109.4         -3.941         -5.305          55.62          150.8
    0.2049              -28.41          25.87          82.62          60.53         -16.16         -2.895          109.4         -3.942         -5.185          55.65          150.8
    0.2138               -28.4          25.88          82.62          60.51         -16.14         -2.899          109.5         -3.944         -5.051          55.69          150.7
    0.2227              -28.39          25.89          82.62          60.49         -16.11         -2.903          109.5         -3.945         -4.901          55.74          150.6
    0.2316              -28.38           25.9          82.62          60.47         -16.09         -2.908          109.6         -3.947         -4.733          55.79          150.6
    0.2405              -28.37          25.91          82.62          60.44         -16.06         -2.914          109.6         -3.949         -4.545          55.85          150.5
    0.2494              -28.35          25.93          82.61          60.41         -16.02          -2.92          109.7         -3.951         -4.332          55.91          150.4
    0.2583              -28.33          25.95          82.61          60.38         -15.98         -2.927          109.8         -3.953          -4.09          55.98          150.3
    0.2672              -28.31          25.96          82.61          60.34         -15.94         -2.934          109.8         -3.956         -3.814          56.07          150.1
    0.2761              -28.29          25.98           82.6          60.29         -15.88         -2.944          109.9         -3.959         -3.497          56.16          150.0
     0.285              -28.26          26.01           82.6          60.24         -15.82         -2.954          110.0         -3.963         -3.131          56.27          149.8
    0.2939              -28.23          26.04          82.59          60.18         -15.75         -2.966          110.2         -3.967         -2.706           56.4          149.6
    0.3029               -28.2          26.07          82.58          60.11         -15.67          -2.98          110.3         -3.972         -2.209          56.55          149.4
    0.3118              -28.16          26.11          82.58          60.03         -15.58         -2.997          110.5         -3.978         -1.623          56.72          149.2
    0.3207               -28.1          26.16          82.57          59.93         -15.46         -3.017          110.7         -3.984        -0.9263          56.93          148.8
    0.3296              -28.04          26.21          82.56          59.82         -15.32         -3.041          111.0         -3.993       -0.09127          57.18          148.5
    0.3385              -27.97          26.28          82.54          59.67         -15.16          -3.07          111.3         -4.003          0.919          57.49          148.0
    0.3474              -27.88          26.36          82.52           59.5         -14.95         -3.105          111.7         -4.015          2.153          57.86          147.4
    0.3563              -27.77          26.46           82.5          59.29          -14.7         -3.149          112.2          -4.03          3.676          58.31          146.7
    0.3652              -27.63          26.59          82.48          59.02         -14.39         -3.203          112.7         -4.049          5.576          58.88          145.9
    0.3741              -27.46          26.75          82.45          58.69          -14.0         -3.271          113.5         -4.073          7.968           59.6          144.8
     0.383              -27.24          26.95          82.41          58.26          -13.5         -3.358          114.4         -4.103          11.01          60.52          143.4
    0.3919              -26.96          27.21          82.35          57.72         -12.86          -3.47          115.6         -4.141           14.9          61.69          141.6
    0.4008               -26.6          27.54          82.28          57.02         -12.04         -3.613          117.2         -4.191           19.9          63.19          139.4
    0.4097              -26.13          27.97           82.2          56.12         -10.99         -3.795          119.1         -4.254          26.28           65.1          136.5
    0.4187              -25.55           28.5          82.09           55.0         -9.668         -4.025          121.6         -4.334          34.31          67.51          132.8
    0.4276              -24.84          29.15          81.96          53.63          -8.06         -4.304          124.6          -4.43          44.08          70.45          128.4
